<svg width="34" height="34" viewBox="0 0 34 34" fill="none" xmlns="http://www.w3.org/2000/svg">
<rect width="34" height="34" rx="17" fill="#0C0C0C"/>
<mask id="mask0_319_6896" style="mask-type:alpha" maskUnits="userSpaceOnUse" x="8" y="8" width="18" height="18">
<rect x="8" y="8" width="18" height="18" fill="#D9D9D9"/>
</mask>
<g mask="url(#mask0_319_6896)">
<path d="M17.0013 24.1211C16.0158 24.1211 15.0895 23.9341 14.2224 23.5601C13.3553 23.1861 12.601 22.6785 11.9596 22.0374C11.3182 21.3963 10.8104 20.6423 10.4362 19.7756C10.0621 18.9088 9.875 17.9828 9.875 16.9974C9.875 16.0119 10.0621 15.0856 10.4362 14.2185C10.8102 13.3513 11.3178 12.5971 11.9591 11.9557C12.6003 11.3143 13.3544 10.8065 14.2213 10.4323C15.0881 10.0582 16.0144 9.87109 17 9.87109C17.79 9.87109 18.5375 9.98984 19.2425 10.2273C19.9475 10.4648 20.5943 10.7961 21.1828 11.2211L20.3692 12.0534C19.8846 11.7197 19.3596 11.46 18.7944 11.2745C18.2291 11.0889 17.631 10.9961 17 10.9961C15.3375 10.9961 13.9219 11.5805 12.7531 12.7492C11.5844 13.918 11 15.3336 11 16.9961C11 18.6586 11.5844 20.0742 12.7531 21.243C13.9219 22.4117 15.3375 22.9961 17 22.9961C18.6625 22.9961 20.0781 22.4117 21.2469 21.243C22.4156 20.0742 23 18.6586 23 16.9961C23 16.7326 22.9827 16.472 22.9481 16.2144C22.9134 15.9568 22.8615 15.7063 22.7923 15.4629L23.7009 14.5472C23.8384 14.9327 23.9434 15.3293 24.0161 15.737C24.0887 16.1447 24.125 16.5643 24.125 16.9961C24.125 17.9817 23.938 18.908 23.564 19.7748C23.19 20.6417 22.6824 21.3958 22.0413 22.037C21.4002 22.6783 20.6463 23.1859 19.7795 23.5599C18.9128 23.934 17.9867 24.1211 17.0013 24.1211ZM15.9356 20.1864L13.0078 17.2586L13.7981 16.4683L15.9356 18.6058L23.3347 11.1952L24.125 11.9855L15.9356 20.1864Z" fill="white"/>
</g>
</svg>
