<svg width="55" height="123" viewBox="0 0 55 123" fill="none" xmlns="http://www.w3.org/2000/svg">
<path d="M44.0007 117.334C44.0007 120.28 46.3885 122.667 49.334 122.667C52.2795 122.667 54.6673 120.28 54.6673 117.334C54.6673 114.388 52.2795 112.001 49.334 112.001C46.3885 112.001 44.0007 114.388 44.0007 117.334ZM0.000650883 5.33398C0.000650883 8.2795 2.38847 10.6673 5.33398 10.6673C8.2795 10.6673 10.6673 8.2795 10.6673 5.33398C10.6673 2.38847 8.2795 0.000650883 5.33398 0.000650883C2.38847 0.000650883 0.000650883 2.38847 0.000650883 5.33398ZM49.334 117.334H50.334V29.334H49.334H48.334V117.334H49.334ZM25.334 5.33398V4.33398H5.33398V5.33398V6.33398H25.334V5.33398ZM49.334 29.334H50.334C50.334 15.5269 39.1411 4.33398 25.334 4.33398V5.33398V6.33398C38.0365 6.33398 48.334 16.6314 48.334 29.334H49.334Z" fill="#B5BCC5"/>
</svg>
