<svg width="132" height="92" viewBox="0 0 132 92" fill="none" xmlns="http://www.w3.org/2000/svg">
<path d="M0.000650883 86.334C0.000650883 89.2795 2.38847 91.6673 5.33398 91.6673C8.2795 91.6673 10.6673 89.2795 10.6673 86.334C10.6673 83.3885 8.2795 81.0006 5.33398 81.0006C2.38847 81.0006 0.000650883 83.3885 0.000650883 86.334ZM121.001 5.33398C121.001 8.2795 123.388 10.6673 126.334 10.6673C129.28 10.6673 131.667 8.2795 131.667 5.33398C131.667 2.38847 129.28 0.000650883 126.334 0.000650883C123.388 0.000650883 121.001 2.38847 121.001 5.33398ZM5.33398 86.334H6.33398V29.334H5.33398H4.33398V86.334H5.33398ZM29.334 5.33398V6.33398H126.334V5.33398V4.33398H29.334V5.33398ZM5.33398 29.334H6.33398C6.33398 16.6314 16.6314 6.33398 29.334 6.33398V5.33398V4.33398C15.5269 4.33398 4.33398 15.5269 4.33398 29.334H5.33398Z" fill="#E50000"/>
</svg>
