<svg width="17" height="17" viewBox="0 0 17 17" fill="none" xmlns="http://www.w3.org/2000/svg">
<mask id="mask0_319_6833" style="mask-type:alpha" maskUnits="userSpaceOnUse" x="0" y="0" width="17" height="17">
<rect width="17" height="17" fill="#D9D9D9"/>
</mask>
<g mask="url(#mask0_319_6833)">
<path d="M1.77246 4.95895V1.75781H4.9736V2.82031H2.83496V4.95895H1.77246ZM1.77246 15.2161V12.015H2.83496V14.1536H4.9736V15.2161H1.77246ZM12.0297 15.2161V14.1536H14.1683V12.015H15.2308V15.2161H12.0297ZM14.1683 4.95895V2.82031H12.0297V1.75781H15.2308V4.95895H14.1683ZM12.2 12.1854H13.1603V13.1457H12.2V12.1854ZM12.2 10.2645H13.1603V11.2249H12.2V10.2645ZM11.2395 11.2249H12.2V12.1854H11.2395V11.2249ZM10.2792 12.1854H11.2395V13.1457H10.2792V12.1854ZM9.31887 11.2249H10.2792V12.1854H9.31887V11.2249ZM11.2395 9.30422H12.2V10.2645H11.2395V9.30422ZM10.2792 10.2645H11.2395V11.2249H10.2792V10.2645ZM9.31887 9.30422H10.2792V10.2645H9.31887V9.30422ZM13.1603 3.82827V7.66974H9.31887V3.82827H13.1603ZM7.68439 9.30422V13.1457H3.84292V9.30422H7.68439ZM7.68439 3.82827V7.66974H3.84292V3.82827H7.68439ZM6.8397 12.301V10.1489H4.68761V12.301H6.8397ZM6.8397 6.82505V4.67296H4.68761V6.82505H6.8397ZM12.3156 6.82505V4.67296H10.1636V6.82505H12.3156Z" fill="#E50000"/>
</g>
</svg>
