<svg width="34" height="34" viewBox="0 0 34 34" fill="none" xmlns="http://www.w3.org/2000/svg">
<rect width="34" height="34" rx="17" fill="#0C0C0C"/>
<mask id="mask0_319_6888" style="mask-type:alpha" maskUnits="userSpaceOnUse" x="8" y="8" width="18" height="18">
<rect x="8" y="8" width="18" height="18" fill="#D9D9D9"/>
</mask>
<g mask="url(#mask0_319_6888)">
<path d="M9.875 13.2605V9.87109H13.2644V10.9961H11V13.2605H9.875ZM9.875 24.1211V20.7317H11V22.9961H13.2644V24.1211H9.875ZM20.7356 24.1211V22.9961H23V20.7317H24.125V24.1211H20.7356ZM23 13.2605V10.9961H20.7356V9.87109H24.125V13.2605H23ZM20.9159 20.912H21.9328V21.9288H20.9159V20.912ZM20.9159 18.8782H21.9328V19.895H20.9159V18.8782ZM19.8989 19.895H20.9159V20.912H19.8989V19.895ZM18.8821 20.912H19.8989V21.9288H18.8821V20.912ZM17.8653 19.895H18.8821V20.912H17.8653V19.895ZM19.8989 17.8614H20.9159V18.8782H19.8989V17.8614ZM18.8821 18.8782H19.8989V19.895H18.8821V18.8782ZM17.8653 17.8614H18.8821V18.8782H17.8653V17.8614ZM21.9328 12.0633V16.1308H17.8653V12.0633H21.9328ZM16.1347 17.8614V21.9288H12.0673V17.8614H16.1347ZM16.1347 12.0633V16.1308H12.0673V12.0633H16.1347ZM15.2403 21.0345V18.7558H12.9616V21.0345H15.2403ZM15.2403 15.2364V12.9577H12.9616V15.2364H15.2403ZM21.0384 15.2364V12.9577H18.7597V15.2364H21.0384Z" fill="white"/>
</g>
</svg>
