<svg width="219" height="53" viewBox="0 0 219 53" fill="none" xmlns="http://www.w3.org/2000/svg">
<path d="M210.041 16.8387H217.14V20.0711H210.041V16.8387ZM210.347 22.8667H218.341V26.2084H206.066V10.9199H218.057V14.2615H210.347V22.8667Z" fill="#E50000"/>
<path d="M185.626 26.2084L179.096 10.9199H183.77L189.273 24.1553H186.521L192.156 10.9199H196.437L189.885 26.2084H185.626Z" fill="#E50000"/>
<path d="M164.832 26.2084V10.9199H169.156V26.2084H164.832Z" fill="#E50000"/>
<path d="M147.332 26.5191C146.079 26.5191 144.871 26.3662 143.706 26.0605C142.556 25.7401 141.617 25.3325 140.889 24.8374L142.308 21.6487C142.993 22.0855 143.779 22.4495 144.667 22.7407C145.57 23.0173 146.465 23.1557 147.353 23.1557C147.95 23.1557 148.431 23.1047 148.795 23.0028C149.159 22.8863 149.421 22.7407 149.581 22.566C149.756 22.3767 149.843 22.1583 149.843 21.9108C149.843 21.5613 149.683 21.2847 149.363 21.0808C149.042 20.877 148.628 20.7095 148.118 20.5785C147.608 20.4474 147.04 20.3164 146.414 20.1853C145.803 20.0543 145.184 19.8869 144.558 19.683C143.946 19.4792 143.386 19.2171 142.876 18.8967C142.367 18.5619 141.952 18.1323 141.631 17.6081C141.311 17.0694 141.151 16.3924 141.151 15.577C141.151 14.6597 141.398 13.8297 141.893 13.0871C142.403 12.3446 143.16 11.7476 144.165 11.2962C145.169 10.8448 146.422 10.6191 147.921 10.6191C148.926 10.6191 149.909 10.7356 150.87 10.9686C151.845 11.187 152.712 11.5146 153.469 11.9514L152.137 15.162C151.409 14.7689 150.688 14.4777 149.974 14.2884C149.261 14.0845 148.569 13.9826 147.9 13.9826C147.303 13.9826 146.822 14.0481 146.458 14.1792C146.094 14.2956 145.832 14.4558 145.672 14.6597C145.512 14.8635 145.432 15.0965 145.432 15.3586C145.432 15.6935 145.584 15.9628 145.89 16.1667C146.21 16.356 146.625 16.5161 147.135 16.6472C147.659 16.7636 148.227 16.8874 148.839 17.0184C149.465 17.1495 150.084 17.3169 150.695 17.5208C151.321 17.7101 151.889 17.9722 152.399 18.307C152.908 18.6274 153.316 19.0569 153.622 19.5956C153.942 20.1198 154.102 20.7823 154.102 21.5831C154.102 22.4713 153.847 23.294 153.338 24.0511C152.843 24.7937 152.093 25.3907 151.088 25.8421C150.098 26.2934 148.846 26.5191 147.332 26.5191Z" fill="#E50000"/>
<path d="M124.457 26.5191C123.204 26.5191 121.996 26.3662 120.831 26.0605C119.681 25.7401 118.742 25.3325 118.014 24.8374L119.433 21.6487C120.118 22.0855 120.904 22.4495 121.792 22.7407C122.695 23.0173 123.59 23.1557 124.478 23.1557C125.075 23.1557 125.556 23.1047 125.92 23.0028C126.284 22.8863 126.546 22.7407 126.706 22.566C126.881 22.3767 126.968 22.1583 126.968 21.9108C126.968 21.5613 126.808 21.2847 126.488 21.0808C126.167 20.877 125.753 20.7095 125.243 20.5785C124.733 20.4474 124.165 20.3164 123.539 20.1853C122.928 20.0543 122.309 19.8869 121.683 19.683C121.071 19.4792 120.511 19.2171 120.001 18.8967C119.492 18.5619 119.077 18.1323 118.756 17.6081C118.436 17.0694 118.276 16.3924 118.276 15.577C118.276 14.6597 118.523 13.8297 119.018 13.0871C119.528 12.3446 120.285 11.7476 121.29 11.2962C122.294 10.8448 123.547 10.6191 125.046 10.6191C126.051 10.6191 127.034 10.7356 127.995 10.9686C128.97 11.187 129.837 11.5146 130.594 11.9514L129.262 15.162C128.534 14.7689 127.813 14.4777 127.099 14.2884C126.386 14.0845 125.694 13.9826 125.024 13.9826C124.428 13.9826 123.947 14.0481 123.583 14.1792C123.219 14.2956 122.957 14.4558 122.797 14.6597C122.637 14.8635 122.557 15.0965 122.557 15.3586C122.557 15.6935 122.709 15.9628 123.015 16.1667C123.335 16.356 123.75 16.5161 124.26 16.6472C124.784 16.7636 125.352 16.8874 125.964 17.0184C126.59 17.1495 127.209 17.3169 127.82 17.5208C128.446 17.7101 129.014 17.9722 129.524 18.307C130.033 18.6274 130.441 19.0569 130.747 19.5956C131.067 20.1198 131.227 20.7823 131.227 21.5831C131.227 22.4713 130.972 23.294 130.463 24.0511C129.968 24.7937 129.218 25.3907 128.213 25.8421C127.223 26.2934 125.971 26.5191 124.457 26.5191Z" fill="#E50000"/>
<path d="M91.3418 26.2084L98.0905 10.9199H102.349L109.12 26.2084H104.621L99.3354 13.0385H101.039L95.7536 26.2084H91.3418Z" fill="#E50000"/>
<path d="M63.6016 26.2084V10.9199H67.1616L73.4953 21.3161H71.6171L77.7761 10.9199H81.3361L81.3798 26.2084H77.4048L77.3611 16.9698H78.0382L73.4298 24.7014H71.5079L66.7684 16.9698H67.5984V26.2084H63.6016Z" fill="#E50000"/>
<path d="M69.0485 45.0609C68.2644 45.0609 67.5399 44.9319 66.8749 44.6738C66.2099 44.4059 65.6343 44.0337 65.1479 43.5573C64.6616 43.0809 64.2795 42.5201 64.0016 41.875C63.7336 41.2298 63.5996 40.5252 63.5996 39.7609C63.5996 38.9967 63.7336 38.292 64.0016 37.6469C64.2795 37.0018 64.6616 36.441 65.1479 35.9646C65.6442 35.4882 66.2248 35.121 66.8898 34.8629C67.5548 34.5949 68.2793 34.4609 69.0634 34.4609C69.8177 34.4609 70.5273 34.59 71.1923 34.848C71.8573 35.0961 72.4181 35.4733 72.8746 35.9795L72.1749 36.6792C71.7481 36.2425 71.2767 35.9299 70.7606 35.7413C70.2445 35.5428 69.6887 35.4435 69.0931 35.4435C68.4679 35.4435 67.8872 35.5527 67.3513 35.771C66.8153 35.9795 66.3489 36.2822 65.9519 36.6792C65.5549 37.0663 65.2422 37.5228 65.0139 38.0489C64.7956 38.565 64.6864 39.1357 64.6864 39.7609C64.6864 40.3862 64.7956 40.9619 65.0139 41.4879C65.2422 42.004 65.5549 42.4606 65.9519 42.8576C66.3489 43.2446 66.8153 43.5474 67.3513 43.7657C67.8872 43.9741 68.4679 44.0783 69.0931 44.0783C69.6887 44.0783 70.2445 43.9791 70.7606 43.7806C71.2767 43.5821 71.7481 43.2645 72.1749 42.8278L72.8746 43.5275C72.4181 44.0337 71.8573 44.4158 71.1923 44.6738C70.5273 44.9319 69.8127 45.0609 69.0485 45.0609Z" fill="#E50000"/>
<path d="M93.0834 34.5391H94.1702V44.9604H93.0834V34.5391ZM86.5626 44.9604H85.4609V34.5391H86.5626V44.9604ZM93.1876 40.1517H86.4435V39.184H93.1876V40.1517Z" fill="#E50000"/>
<path d="M106.758 44.9604L111.522 34.5391H112.609L117.373 44.9604H116.211L111.834 35.1792H112.281L107.904 44.9604H106.758ZM108.634 42.1764L108.961 41.2832H115.02L115.348 42.1764H108.634Z" fill="#E50000"/>
<path d="M129.961 44.9604V34.5391H133.861C134.745 34.5391 135.504 34.683 136.139 34.9708C136.775 35.2487 137.261 35.6556 137.598 36.1916C137.946 36.7176 138.119 37.3578 138.119 38.1121C138.119 38.8465 137.946 39.4818 137.598 40.0177C137.261 40.5437 136.775 40.9507 136.139 41.2385C135.504 41.5164 134.745 41.6553 133.861 41.6553H130.571L131.063 41.1492V44.9604H129.961ZM137.077 44.9604L134.397 41.1789H135.588L138.283 44.9604H137.077ZM131.063 41.2385L130.571 40.7174H133.832C134.874 40.7174 135.663 40.4892 136.199 40.0326C136.745 39.576 137.018 38.9359 137.018 38.1121C137.018 37.2784 136.745 36.6333 136.199 36.1767C135.663 35.7201 134.874 35.4919 133.832 35.4919H130.571L131.063 34.9708V41.2385Z" fill="#E50000"/>
<path d="M156.363 45.0609C155.569 45.0609 154.834 44.9319 154.159 44.6738C153.494 44.4059 152.914 44.0337 152.417 43.5573C151.931 43.0809 151.549 42.5201 151.271 41.875C151.003 41.2298 150.869 40.5252 150.869 39.7609C150.869 38.9967 151.003 38.292 151.271 37.6469C151.549 37.0018 151.936 36.441 152.432 35.9646C152.929 35.4882 153.509 35.121 154.174 34.8629C154.849 34.5949 155.584 34.4609 156.378 34.4609C157.172 34.4609 157.896 34.585 158.551 34.8331C159.216 35.0813 159.782 35.4584 160.248 35.9646L159.564 36.6643C159.127 36.2276 158.645 35.915 158.119 35.7264C157.593 35.5378 157.028 35.4435 156.422 35.4435C155.777 35.4435 155.182 35.5527 154.636 35.771C154.1 35.9795 153.628 36.2822 153.221 36.6792C152.824 37.0663 152.512 37.5228 152.283 38.0489C152.065 38.565 151.956 39.1357 151.956 39.7609C151.956 40.3763 152.065 40.947 152.283 41.473C152.512 41.999 152.824 42.4606 153.221 42.8576C153.628 43.2446 154.1 43.5474 154.636 43.7657C155.182 43.9741 155.772 44.0783 156.407 44.0783C157.003 44.0783 157.564 43.989 158.09 43.8104C158.626 43.6317 159.117 43.329 159.564 42.9022L160.189 43.7359C159.693 44.1726 159.112 44.5051 158.447 44.7334C157.782 44.9518 157.087 45.0609 156.363 45.0609ZM159.132 43.6019V39.7609H160.189V43.7359L159.132 43.6019Z" fill="#E50000"/>
<path d="M172.84 44.9604V34.5391H173.942V44.9604H172.84Z" fill="#E50000"/>
<path d="M186.527 44.9604V34.5391H187.435L194.626 43.5907H194.15V34.5391H195.237V44.9604H194.328L187.153 35.9087H187.629V44.9604H186.527Z" fill="#E50000"/>
<path d="M213.316 45.0609C212.522 45.0609 211.787 44.9319 211.112 44.6738C210.447 44.4059 209.867 44.0337 209.371 43.5573C208.884 43.0809 208.502 42.5201 208.224 41.875C207.956 41.2298 207.822 40.5252 207.822 39.7609C207.822 38.9967 207.956 38.292 208.224 37.6469C208.502 37.0018 208.889 36.441 209.385 35.9646C209.882 35.4882 210.462 35.121 211.127 34.8629C211.802 34.5949 212.537 34.4609 213.331 34.4609C214.125 34.4609 214.849 34.585 215.504 34.8331C216.169 35.0813 216.735 35.4584 217.201 35.9646L216.517 36.6643C216.08 36.2276 215.599 35.915 215.073 35.7264C214.547 35.5378 213.981 35.4435 213.375 35.4435C212.73 35.4435 212.135 35.5527 211.589 35.771C211.053 35.9795 210.581 36.2822 210.175 36.6792C209.778 37.0663 209.465 37.5228 209.237 38.0489C209.018 38.565 208.909 39.1357 208.909 39.7609C208.909 40.3763 209.018 40.947 209.237 41.473C209.465 41.999 209.778 42.4606 210.175 42.8576C210.581 43.2446 211.053 43.5474 211.589 43.7657C212.135 43.9741 212.725 44.0783 213.36 44.0783C213.956 44.0783 214.517 43.989 215.043 43.8104C215.579 43.6317 216.07 43.329 216.517 42.9022L217.142 43.7359C216.646 44.1726 216.065 44.5051 215.4 44.7334C214.735 44.9518 214.04 45.0609 213.316 45.0609ZM216.085 43.6019V39.7609H217.142V43.7359L216.085 43.6019Z" fill="#E50000"/>
<foreignObject x="-16" y="-16" width="85" height="85"><div xmlns="http://www.w3.org/1999/xhtml" style="backdrop-filter:blur(8px);clip-path:url(#bgblur_0_253_4086_clip_path);height:100%;width:100%"></div></foreignObject><g data-figma-bg-blur-radius="16">
<path d="M11.2146 46.3812H8.75981C4.31761 46.3812 1.08308 41.9674 2.23444 37.474L9.00472 11H20.2651L11.2146 46.3812Z" fill="#E50000"/>
<path d="M28.1041 46.3812H16.8438L25.8942 11H37.1546L28.1041 46.3812Z" fill="#E50000"/>
<path d="M44.9947 46.3812H33.7344L42.7849 11H45.2396C49.6818 11 52.9164 15.4138 51.765 19.9072L44.9919 46.3812H44.9947Z" fill="#E50000"/>
</g>
<defs>
<clipPath id="bgblur_0_253_4086_clip_path" transform="translate(16 16)"><rect width="53.0001" height="53" rx="24"/>
</clipPath></defs>
</svg>
