<svg width="18" height="18" viewBox="0 0 18 18" fill="none" xmlns="http://www.w3.org/2000/svg">
<mask id="mask0_319_6814" style="mask-type:alpha" maskUnits="userSpaceOnUse" x="0" y="0" width="18" height="18">
<rect width="18" height="18" fill="#D9D9D9"/>
</mask>
<g mask="url(#mask0_319_6814)">
<path d="M8.2125 11.4052L12.1903 7.42738L11.3884 6.62544L8.2125 9.8015L6.62306 8.21206L5.82113 9.014L8.2125 11.4052ZM9 16.1129C7.37787 15.6706 6.03488 14.7158 4.971 13.2485C3.907 11.7813 3.375 10.1409 3.375 8.32738V4.01206L9 1.90625L14.625 4.01206V8.32738C14.625 10.1409 14.093 11.7813 13.029 13.2485C11.9651 14.7158 10.6221 15.6706 9 16.1129ZM9 14.9274C10.3 14.5149 11.375 13.6899 12.225 12.4524C13.075 11.2149 13.5 9.83988 13.5 8.32738V4.78363L9 3.10325L4.5 4.78363V8.32738C4.5 9.83988 4.925 11.2149 5.775 12.4524C6.625 13.6899 7.7 14.5149 9 14.9274Z" fill="#E50000"/>
</g>
</svg>
