<svg width="132" height="66" viewBox="0 0 132 66" fill="none" xmlns="http://www.w3.org/2000/svg">
<path d="M0.000650883 5.33398C0.000650883 8.2795 2.38847 10.6673 5.33398 10.6673C8.2795 10.6673 10.6673 8.2795 10.6673 5.33398C10.6673 2.38847 8.2795 0.000650883 5.33398 0.000650883C2.38847 0.000650883 0.000650883 2.38847 0.000650883 5.33398ZM121.001 60.334C121.001 63.2795 123.388 65.6673 126.334 65.6673C129.28 65.6673 131.667 63.2795 131.667 60.334C131.667 57.3885 129.28 55.0007 126.334 55.0007C123.388 55.0007 121.001 57.3885 121.001 60.334ZM5.33398 5.33398H4.33398V8.83398H5.33398H6.33398V5.33398H5.33398ZM29.334 32.834V33.834H102.334V32.834V31.834H29.334V32.834ZM126.334 56.834H125.334V60.334H126.334H127.334V56.834H126.334ZM102.334 32.834V33.834C115.037 33.834 125.334 44.1314 125.334 56.834H126.334H127.334C127.334 43.0269 116.141 31.834 102.334 31.834V32.834ZM5.33398 8.83398H4.33398C4.33398 22.6411 15.5269 33.834 29.334 33.834V32.834V31.834C16.6314 31.834 6.33398 21.5365 6.33398 8.83398H5.33398Z" fill="#E50000"/>
</svg>
