<svg width="18" height="18" viewBox="0 0 18 18" fill="none" xmlns="http://www.w3.org/2000/svg">
<mask id="mask0_319_6805" style="mask-type:alpha" maskUnits="userSpaceOnUse" x="0" y="0" width="18" height="18">
<rect width="18" height="18" fill="#D9D9D9"/>
</mask>
<g mask="url(#mask0_319_6805)">
<path d="M16.126 4.73081V13.2692C16.126 13.6481 15.9947 13.9688 15.7322 14.2313C15.4697 14.4938 15.149 14.625 14.7702 14.625H3.23179C2.85291 14.625 2.53223 14.4938 2.26973 14.2313C2.00723 13.9688 1.87598 13.6481 1.87598 13.2692V4.73081C1.87598 4.35194 2.00723 4.03125 2.26973 3.76875C2.53223 3.50625 2.85291 3.375 3.23179 3.375H14.7702C15.149 3.375 15.4697 3.50625 15.7322 3.76875C15.9947 4.03125 16.126 4.35194 16.126 4.73081ZM3.00098 6.303H15.001V4.73081C15.001 4.67306 14.9769 4.62019 14.9288 4.57219C14.8808 4.52406 14.8279 4.5 14.7702 4.5H3.23179C3.17404 4.5 3.12116 4.52406 3.07316 4.57219C3.02504 4.62019 3.00098 4.67306 3.00098 4.73081V6.303ZM3.00098 8.697V13.2692C3.00098 13.3269 3.02504 13.3798 3.07316 13.4278C3.12116 13.4759 3.17404 13.5 3.23179 13.5H14.7702C14.8279 13.5 14.8808 13.4759 14.9288 13.4278C14.9769 13.3798 15.001 13.3269 15.001 13.2692V8.697H3.00098Z" fill="#E50000"/>
</g>
</svg>
