<svg width="34" height="34" viewBox="0 0 34 34" fill="none" xmlns="http://www.w3.org/2000/svg">
<rect width="34" height="34" rx="17" fill="#0C0C0C"/>
<mask id="mask0_319_6904" style="mask-type:alpha" maskUnits="userSpaceOnUse" x="8" y="8" width="18" height="18">
<rect x="8" y="8" width="18" height="18" fill="#D9D9D9"/>
</mask>
<g mask="url(#mask0_319_6904)">
<path d="M11.8628 20.0019C11.4614 19.6009 11.2607 19.114 11.2607 18.5411H9.76074V16.4786C9.76074 15.7017 10.0352 15.0387 10.5842 14.4896C11.1332 13.9406 11.7962 13.6661 12.5732 13.6661H15.3857V17.4161H18.2847L21.0107 14.0383V12.0939C21.0107 12.0267 20.9891 11.9714 20.9459 11.9282C20.9025 11.8848 20.8472 11.8631 20.7799 11.8631H18.7607V10.7383H20.7799C21.1528 10.7383 21.472 10.871 21.7375 11.1365C22.003 11.402 22.1357 11.7212 22.1357 12.0939V14.4189L18.8616 18.5411H15.3857C15.3857 19.1132 15.1853 19.6 14.7844 20.0013C14.3836 20.4028 13.8967 20.6036 13.324 20.6036C12.7514 20.6036 12.2643 20.403 11.8628 20.0019ZM13.9874 19.2052C14.1696 19.023 14.2607 18.8016 14.2607 18.5411H12.3857C12.3857 18.8016 12.4768 19.023 12.6589 19.2052C12.8412 19.3875 13.0626 19.4786 13.3232 19.4786C13.5837 19.4786 13.8051 19.3875 13.9874 19.2052ZM12.0107 12.6131V11.4883H15.3857V12.6131H12.0107ZM20.7186 20.0023C20.3171 19.6014 20.1164 19.1146 20.1164 18.5418C20.1164 17.9692 20.3168 17.4822 20.7177 17.0807C21.1186 16.6793 21.6054 16.4786 22.1781 16.4786C22.7507 16.4786 23.2378 16.679 23.6393 17.0799C24.0407 17.4808 24.2414 17.9675 24.2414 18.5402C24.2414 19.1129 24.0409 19.6 23.6401 20.0013C23.2392 20.4028 22.7524 20.6036 22.1798 20.6036C21.6071 20.6036 21.12 20.4032 20.7186 20.0023ZM22.8432 19.2052C23.0253 19.023 23.1164 18.8016 23.1164 18.5411C23.1164 18.2805 23.0253 18.059 22.8432 17.8768C22.6609 17.6947 22.4395 17.6036 22.1789 17.6036C21.9184 17.6036 21.697 17.6947 21.5147 17.8768C21.3325 18.059 21.2414 18.2805 21.2414 18.5411C21.2414 18.8016 21.3325 19.023 21.5147 19.2052C21.697 19.3875 21.9184 19.4786 22.1789 19.4786C22.4395 19.4786 22.6609 19.3875 22.8432 19.2052ZM17.7655 25.118L13.5972 23.0267H16.3664V21.6275L20.5347 23.7189H17.7655V25.118ZM10.8857 17.4161H14.2607V14.7911H12.5717C12.1074 14.7911 11.7102 14.9563 11.3804 15.2868C11.0506 15.6172 10.8857 16.0145 10.8857 16.4786V17.4161Z" fill="white"/>
</g>
</svg>
