<svg width="17" height="17" viewBox="0 0 17 17" fill="none" xmlns="http://www.w3.org/2000/svg">
<mask id="mask0_319_6824" style="mask-type:alpha" maskUnits="userSpaceOnUse" x="0" y="0" width="17" height="17">
<rect width="17" height="17" fill="#D9D9D9"/>
</mask>
<g mask="url(#mask0_319_6824)">
<path d="M9.40489 8.01629C9.65517 7.76613 9.78031 7.46444 9.78031 7.11122C9.78031 6.758 9.65517 6.45625 9.40489 6.20597C9.15473 5.95581 8.85304 5.83073 8.49982 5.83073C8.1466 5.83073 7.84491 5.95581 7.59475 6.20597C7.34447 6.45625 7.21933 6.758 7.21933 7.11122C7.21933 7.46444 7.34447 7.76613 7.59475 8.01629C7.84491 8.26645 8.1466 8.39153 8.49982 8.39153C8.85304 8.39153 9.15473 8.26645 9.40489 8.01629ZM8.49982 13.809C9.88556 12.5685 10.946 11.3786 11.6811 10.2394C12.4163 9.10016 12.7838 8.10235 12.7838 7.24598C12.7838 5.95469 12.3736 4.89313 11.5531 4.06131C10.7326 3.22949 9.71485 2.81358 8.49982 2.81358C7.28479 2.81358 6.26704 3.22949 5.44655 4.06131C4.62606 4.89313 4.21582 5.95469 4.21582 7.24598C4.21582 8.10235 4.58339 9.10016 5.31852 10.2394C6.05365 11.3786 7.11408 12.5685 8.49982 13.809ZM8.49982 15.2229C6.71718 13.6782 5.38044 12.2407 4.48959 10.9104C3.59874 9.57988 3.15332 8.35842 3.15332 7.24598C3.15332 5.61138 3.68203 4.28804 4.73946 3.27595C5.797 2.26386 7.05045 1.75781 8.49982 1.75781C9.94919 1.75781 11.2026 2.26386 12.2602 3.27595C13.3176 4.28804 13.8463 5.61138 13.8463 7.24598C13.8463 8.35842 13.4009 9.57988 12.5101 10.9104C11.6192 12.2407 10.2825 13.6782 8.49982 15.2229Z" fill="#E50000"/>
</g>
</svg>
